<svg width="80" height="60" viewBox="0 0 80 60" fill="none" xmlns="http://www.w3.org/2000/svg">
<path d="M2.53906 48.7418H67.2893H77.4637" fill="white"/>
<path d="M2.53906 48.7418H67.2893H77.4637" stroke="#1D1E1E" stroke-width="1.19487" stroke-miterlimit="10" stroke-linecap="round"/>
<path d="M20.7043 38.9468H23.8528C24.4866 38.9468 25.0945 39.1986 25.5426 39.6467C25.9908 40.0949 26.2426 40.7027 26.2426 41.3365V45.5186C26.2426 46.3734 25.903 47.1933 25.2985 47.7977C24.6941 48.4022 23.8742 48.7418 23.0194 48.7418H21.5258C20.672 48.7402 19.8537 48.3999 19.2505 47.7956C18.6474 47.1913 18.3086 46.3724 18.3086 45.5186V41.3365C18.3086 41.0222 18.3706 40.711 18.4911 40.4206C18.6115 40.1303 18.7881 39.8666 19.0106 39.6446C19.2332 39.4226 19.4973 39.2467 19.788 39.127C20.0786 39.0072 20.39 38.946 20.7043 38.9468Z" fill="white" stroke="#1D1E1E" stroke-width="1.19487" stroke-miterlimit="10"/>
<path d="M56.964 38.9468H60.1155C60.7493 38.9468 61.3571 39.1986 61.8053 39.6467C62.2534 40.0949 62.5052 40.7027 62.5052 41.3365V45.5186C62.5052 46.3734 62.1656 47.1933 61.5612 47.7977C60.9567 48.4022 60.1369 48.7418 59.282 48.7418H57.7884C56.9351 48.7394 56.1176 48.3988 55.5151 47.7946C54.9126 47.1903 54.5742 46.3719 54.5742 45.5186V41.3365C54.5742 40.7027 54.826 40.0949 55.2742 39.6467C55.7223 39.1986 56.3302 38.9468 56.964 38.9468Z" fill="white" stroke="#1D1E1E" stroke-width="1.19487" stroke-miterlimit="10"/>
<path d="M64.0912 27.0906C64.1981 26.958 64.2912 26.8149 64.369 26.6634C64.6334 26.1382 64.7441 25.5491 64.6886 24.9637C64.6301 24.4389 64.4306 23.9397 64.1114 23.519C63.7922 23.0982 63.3651 22.7717 62.8754 22.574C62.6175 22.4696 62.3458 22.4031 62.0689 22.3768C61.6647 22.3381 61.2569 22.3843 60.8717 22.5125C60.4864 22.6406 60.1322 22.8479 59.8318 23.121C59.5314 23.3942 59.2914 23.7271 59.1273 24.0984C58.9631 24.4698 58.8784 24.8714 58.8786 25.2774C58.8789 25.3772 58.8849 25.4769 58.8965 25.5761C58.967 26.1435 58.9367 26.7189 58.8069 27.2758L58.5948 28.1241C58.574 28.2055 58.5753 28.291 58.5985 28.3717C58.6218 28.4524 58.6661 28.5254 58.727 28.5832C58.7879 28.6411 58.8631 28.6816 58.9449 28.7007C59.0266 28.7198 59.112 28.7167 59.1922 28.6917L60.4379 28.3422C60.8843 28.2255 61.3447 28.1712 61.806 28.1809C62.2435 28.1776 62.675 28.0783 63.0698 27.8899C63.4647 27.7015 63.8134 27.4286 64.0912 27.0906Z" fill="white" stroke="#1D1E1E" stroke-width="1.19487" stroke-miterlimit="10" stroke-linecap="round"/>
<path d="M15.9104 27.0908C15.8045 26.9581 15.7124 26.815 15.6356 26.6636C15.3654 26.1412 15.2494 25.5528 15.301 24.9669C15.3596 24.442 15.5591 23.9428 15.8783 23.5221C16.1975 23.1014 16.6246 22.7749 17.1143 22.5771C17.3721 22.4727 17.6438 22.4063 17.9208 22.38C18.325 22.3413 18.7328 22.3875 19.118 22.5156C19.5033 22.6438 19.8575 22.8511 20.1579 23.1242C20.4583 23.3974 20.6983 23.7303 20.8624 24.1016C21.0266 24.473 21.1113 24.8745 21.1111 25.2806C21.1107 25.3804 21.1047 25.4801 21.0932 25.5793C21.0227 26.1467 21.053 26.7221 21.1828 27.279L21.3949 28.1273C21.4157 28.2087 21.4144 28.2941 21.3912 28.3748C21.3679 28.4555 21.3236 28.5286 21.2627 28.5864C21.2018 28.6443 21.1266 28.6848 21.0448 28.7039C20.963 28.7229 20.8777 28.7198 20.7975 28.6949L19.5518 28.3454C19.1064 28.2288 18.647 28.1745 18.1867 28.1841C17.7486 28.1812 17.3166 28.0821 16.9212 27.8937C16.5258 27.7052 16.1766 27.4322 15.8985 27.0938L15.9104 27.0908Z" fill="white" stroke="#1D1E1E" stroke-width="1.19487" stroke-miterlimit="10" stroke-linecap="round"/>
<path d="M59.7631 26.8457L56.2711 17.2509C55.6804 15.9757 54.7356 14.897 53.5493 14.1434C52.363 13.3898 50.9852 12.993 49.5798 13.0001H30.2468C28.9616 12.9953 27.6975 13.327 26.5802 13.9621C25.4629 14.5973 24.5313 15.5138 23.8781 16.6206L19.5078 27.1504L59.7631 26.8457Z" fill="#318FCC" stroke="#1D1E1E" stroke-width="1.19487" stroke-miterlimit="10"/>
<path d="M61.5641 42.9408C47.2599 43.7115 32.9246 43.7115 18.6203 42.9408C16.9057 42.9408 15.5137 41.7847 15.5137 40.3569V33.089C15.5137 29.2564 19.2477 26.1498 23.8569 26.1498H56.3246C60.9309 26.1498 64.6678 29.2564 64.6678 33.089V40.3569C64.6708 41.7847 63.2788 42.9408 61.5641 42.9408Z" fill="white" stroke="#1D1E1E" stroke-width="1.19487" stroke-miterlimit="10"/>
<path d="M50.5444 37.2112C43.7472 37.6951 36.9242 37.6951 30.127 37.2112H50.5444Z" fill="white"/>
<path d="M50.5444 37.2112C43.7472 37.6951 36.9242 37.6951 30.127 37.2112" stroke="#1D1E1E" stroke-width="1.19487" stroke-miterlimit="10" stroke-linecap="round"/>
<path d="M25.2906 31.0338H22.9517C21.7605 31.0338 20.7949 31.9994 20.7949 33.1906V33.8657C20.7949 35.0568 21.7605 36.0224 22.9517 36.0224H25.2906C26.4818 36.0224 27.4474 35.0568 27.4474 33.8657V33.1906C27.4474 31.9994 26.4818 31.0338 25.2906 31.0338Z" fill="#318FCC" stroke="#1D1E1E" stroke-width="1.19487" stroke-miterlimit="10"/>
<path d="M57.9352 31.0338H55.5962C54.4051 31.0338 53.4395 31.9994 53.4395 33.1906V33.8657C53.4395 35.0568 54.4051 36.0224 55.5962 36.0224H57.9352C59.1263 36.0224 60.0919 35.0568 60.0919 33.8657V33.1906C60.0919 31.9994 59.1263 31.0338 57.9352 31.0338Z" fill="#318FCC" stroke="#1D1E1E" stroke-width="1.19487" stroke-miterlimit="10"/>
</svg>
