<svg width="51" height="43" viewBox="0 0 51 43" fill="none" xmlns="http://www.w3.org/2000/svg">
<path d="M14.1728 1.00349C12.0903 0.954682 10.0322 1.41837 8.17748 2.35387C6.32274 3.28937 4.72832 4.67229 3.53251 6.3806C1.83233 8.91866 0.945637 11.9123 1.00258 14.971C1.05952 18.0215 2.05197 20.9826 3.84976 23.4556C10.1461 32.8838 22.511 41.1244 23.0479 41.4741C23.3489 41.6775 23.7068 41.7833 24.0648 41.7833C24.4227 41.7833 24.7806 41.6775 25.0816 41.4741C25.6022 41.1244 37.9671 32.8838 44.2797 23.4556C46.0775 20.9826 47.07 18.0215 47.1269 14.971C47.1839 11.9204 46.3053 8.91866 44.597 6.38873C43.4012 4.68856 41.7986 3.31378 39.9439 2.37827C38.0892 1.44277 36.0311 0.970952 33.9567 1.01163C31.9799 1.0767 30.0438 1.62174 28.3193 2.59791C26.5947 3.57409 25.1304 4.95701 24.0566 6.62464C22.9828 4.95701 21.5186 3.58222 19.794 2.59791C18.0694 1.62174 16.1333 1.0767 14.1566 1.01163L14.1728 1.00349Z" fill="white" stroke="#1D1E1E" stroke-width="1.18" stroke-miterlimit="10"/>
<path d="M2.78516 20.657H9.31741L11.2698 14.4258L14.5806 26.6931L17.8915 17.9319L20.2262 23.5774L21.9752 20.8523H28.6294" fill="white"/>
<path d="M2.78516 20.657H9.31741L11.2698 14.4258L14.5806 26.6931L17.8915 17.9319L20.2262 23.5774L21.9752 20.8523H28.6294" stroke="#1D1E1E" stroke-width="1.18" stroke-linecap="round" stroke-linejoin="round"/>
<path d="M48.2654 13.7995C48.599 13.8565 48.8837 14.0192 49.0789 14.2714C49.2741 14.5235 49.4124 14.8327 49.4124 15.1337V23.5694C49.4368 25.9448 48.7454 28.2632 47.4601 30.2725C46.1748 32.2818 44.3038 33.9088 42.0992 34.9419C41.237 35.3324 40.2526 35.8937 39.3904 35.8937C38.5281 35.8937 37.5438 35.3324 36.6815 34.9419C34.4769 33.9088 32.6059 32.29 31.3206 30.2725C30.0353 28.2632 29.3357 25.9448 29.3683 23.5694V15.1337C29.3683 14.8245 29.4822 14.5154 29.7018 14.2714C29.897 14.0192 30.2062 13.8484 30.5153 13.7995C33.0045 13.3765 35.99 12.5387 38.6501 10.8954C38.8697 10.7571 39.1544 10.6758 39.4066 10.6758C39.6588 10.6758 39.9354 10.7571 40.1632 10.8954C42.7907 12.5468 45.7762 13.3847 48.298 13.7995H48.2654Z" fill="#318FCC" stroke="#1D1E1E" stroke-width="1.18" stroke-miterlimit="10"/>
</svg>
