<svg width="75" height="43" viewBox="0 0 75 43" fill="none" xmlns="http://www.w3.org/2000/svg">
<g clip-path="url(#clip0_987_2275)">
<path d="M58.2004 30.6046C59.8656 35.1572 63.317 36.0164 65.4693 36.0459C68.1619 36.0902 74.049 35.107 73.736 25.9693C73.6711 22.9098 73.0071 19.8926 71.7815 17.0885C70.9519 15.261 69.7975 13.3685 68.0822 12.1373C67.4849 11.7016 66.7681 11.4597 66.0289 11.4444C65.2897 11.4291 64.5637 11.641 63.9488 12.0517C62.3575 13.0466 61.268 14.6734 60.4059 16.2234C58.9893 18.8388 58.1279 21.7184 57.8757 24.6821C57.8403 25.0659 57.8108 25.4497 57.7901 25.8365C57.7635 26.3177 57.7576 26.7783 57.7635 27.2182C57.7487 27.2182 57.7074 29.2583 58.2004 30.6046Z" fill="white" stroke="#1D1E1E" stroke-width="1.18096" stroke-miterlimit="10"/>
<path d="M65.75 41.9773V36.0459" stroke="#1D1E1E" stroke-width="1.18096" stroke-linecap="round" stroke-linejoin="round"/>
<path d="M0.535156 42.2432H64.4253H74.4664" fill="white"/>
<path d="M0.535156 42.2432H64.4253H74.4664" stroke="#1D1E1E" stroke-width="1.18096" stroke-miterlimit="10" stroke-linecap="round"/>
<path d="M16.4781 42.249H59.9966V18.7951C59.9807 17.9427 59.7629 17.1062 59.3611 16.3543C58.9592 15.6025 58.3847 14.9566 57.6849 14.4698L39.1408 0.859183C38.8422 0.648887 38.486 0.536011 38.1208 0.536011C37.7556 0.536011 37.3993 0.648887 37.1007 0.859183L18.6039 14.3369C17.893 14.8275 17.3103 15.4814 16.9044 16.2437C16.4986 17.0061 16.2816 17.8547 16.2715 18.7183L16.4781 42.249Z" fill="white" stroke="#1D1E1E" stroke-width="1.18096" stroke-miterlimit="10"/>
<path d="M40.3967 42.249V27.614C40.3899 26.759 40.5547 25.9115 40.8812 25.1214C41.2078 24.3313 41.6896 23.6147 42.298 23.0141C43.2936 22.0252 44.6399 21.4702 46.0432 21.4702C47.4464 21.4702 48.7927 22.0252 49.7883 23.0141C50.3977 23.6142 50.8803 24.3305 51.2074 25.1207C51.5345 25.9109 51.6995 26.7588 51.6926 27.614V42.249H40.3967Z" fill="#318FCC" stroke="#1D1E1E" stroke-width="1.18096" stroke-miterlimit="10"/>
<path d="M22.4004 34.0914H35.3319" stroke="#1D1E1E" stroke-width="1.18096" stroke-miterlimit="10" stroke-linecap="round"/>
<path d="M28.8247 22.0044C26.1233 22.0044 23.9355 23.7079 23.9355 25.813V34.0797H33.7169V25.813C33.7169 23.7079 31.5262 22.0044 28.8247 22.0044Z" fill="#318FCC" stroke="#1D1E1E" stroke-width="1.18096" stroke-miterlimit="10" stroke-linecap="round"/>
<path d="M7.89453 32.9193H20.0112" stroke="#1D1E1E" stroke-width="1.18096" stroke-linecap="round" stroke-linejoin="round"/>
<path d="M7.89453 38.7297H19.2524" stroke="#1D1E1E" stroke-width="1.18096" stroke-linecap="round" stroke-linejoin="round"/>
<path d="M4.3457 42.1722H7.8945V30.7146C7.8945 30.5104 7.83201 30.3111 7.71542 30.1435L6.94717 29.0391C6.54763 28.4647 5.69688 28.4677 5.30135 29.0448L4.52081 30.1838C4.40675 30.3503 4.3457 30.5473 4.3457 30.7491V42.1722Z" fill="white" stroke="#1D1E1E" stroke-width="1.18096" stroke-linecap="round" stroke-linejoin="round"/>
<path d="M10.4746 42.1722H14.0234V30.7146C14.0234 30.5104 13.9609 30.3111 13.8443 30.1435L13.0761 29.0391C12.6765 28.4647 11.8258 28.4677 11.4303 29.0448L10.6497 30.1838C10.5357 30.3503 10.4746 30.5473 10.4746 30.7491V42.1722Z" fill="white" stroke="#1D1E1E" stroke-width="1.18096" stroke-linecap="round" stroke-linejoin="round"/>
<path d="M16.4629 42.1722H20.0117V30.7146C20.0117 30.5104 19.9492 30.3111 19.8326 30.1435L19.0644 29.0391C18.6648 28.4647 17.8141 28.4677 17.4185 29.0448L16.638 30.1838C16.5239 30.3503 16.4629 30.5473 16.4629 30.7491V42.1722Z" fill="white" stroke="#1D1E1E" stroke-width="1.18096" stroke-linecap="round" stroke-linejoin="round"/>
</g>
<defs>
<clipPath id="clip0_987_2275">
<rect width="75" height="42.7745" fill="white"/>
</clipPath>
</defs>
</svg>
