<svg width="35" height="44" viewBox="0 0 35 44" fill="none" xmlns="http://www.w3.org/2000/svg">
<path d="M32.161 6.15298C32.7124 6.24629 33.1747 6.52196 33.497 6.93335C33.8193 7.34899 34.0483 7.85368 34.0483 8.35838V22.2651C34.095 26.1754 32.9456 29.9967 30.8251 33.3132C28.7045 36.6298 25.6254 39.2975 21.9865 40.9982C20.5615 41.6428 18.9499 42.5632 17.5206 42.5632C16.0913 42.5632 14.484 41.6428 13.0547 40.9982C9.42003 39.2932 6.33248 36.6256 4.21615 33.3132C2.09983 30.0009 0.954719 26.1754 1.00137 22.2651V8.36262C1.00137 7.85792 1.18374 7.34899 1.55272 6.93759C1.87505 6.52196 2.37974 6.24629 2.88868 6.15723C6.98562 5.46592 11.9096 4.08755 16.2822 1.36898C16.6512 1.13996 17.1092 1 17.5248 1C17.9405 1 18.3985 1.13996 18.7675 1.36898C23.0935 4.08331 28.0174 5.46592 32.161 6.15723V6.15298Z" fill="white" stroke="#1D1E1E" stroke-width="1.18" stroke-miterlimit="10"/>
<path d="M28.6815 9.88567C29.1056 9.97049 29.4449 10.1825 29.6994 10.4794C29.9539 10.7763 30.1235 11.2004 30.1235 11.5821V22.185C30.1659 25.1538 29.2753 28.0802 27.6636 30.6248C26.052 33.1695 23.7194 35.2053 20.9202 36.4776C19.8175 36.9865 18.5876 37.6651 17.5273 37.6651C16.467 37.6651 15.1947 36.9441 14.1344 36.4776C11.3777 35.1629 9.00263 33.1271 7.391 30.6248C5.77936 28.1226 4.88872 25.1962 4.93114 22.185V11.5821C4.93114 11.2004 5.05837 10.8187 5.35525 10.4794C5.60972 10.1825 5.99142 9.97049 6.37312 9.88567C9.51157 9.37673 13.2438 8.31644 16.5943 6.23829C16.8911 6.06864 17.2304 5.94141 17.5273 5.94141C17.8242 5.94141 18.2059 6.02623 18.4604 6.23829C21.7685 8.27403 25.5431 9.33432 28.6815 9.88567Z" fill="white" stroke="#1D1E1E" stroke-width="1.18" stroke-miterlimit="10"/>
<path d="M17.5259 21.8038V5.98438C17.229 5.98438 16.8473 6.0692 16.5928 6.28125C13.2423 8.35941 9.51012 9.4197 6.37168 9.92863C5.98997 10.0135 5.60827 10.2255 5.3538 10.5224C5.05692 10.8193 4.92969 11.2434 4.92969 11.6251V21.8462H17.5259V21.8038Z" fill="#0083E6" stroke="#1D1E1E" stroke-width="1.18" stroke-miterlimit="10"/>
<path d="M30.1235 21.8047V22.1864C30.1659 25.1552 29.2753 28.0816 27.6637 30.6263C26.052 33.1709 23.7194 35.2067 20.9203 36.479C19.8176 36.988 18.5876 37.6665 17.5273 37.6665V21.8471L30.1235 21.8047Z" fill="#0083E6" stroke="#1D1E1E" stroke-width="1.18" stroke-miterlimit="10"/>
</svg>
