<svg width="44" height="45" viewBox="0 0 44 45" fill="none" xmlns="http://www.w3.org/2000/svg">
<circle cx="22" cy="23" r="22" fill="#FFF1E5"/>
<path d="M15.0572 7.94986C14.9599 7.95768 14.8671 7.99412 14.7905 8.05461C14.7139 8.11509 14.657 8.19686 14.6268 8.28969C14.1401 9.76061 13.6298 11.286 13.627 12.8793H10.1659C9.35314 12.8793 8.68347 13.5493 8.68347 14.3622V17.328C8.68347 18.141 9.35314 18.8108 10.1659 18.8108V34.1475C10.1659 35.5066 11.2779 36.619 12.6366 36.619H24.5038H32.4024C33.7611 36.619 34.8731 35.5066 34.8731 34.1475V18.8108C35.6859 18.8108 36.3555 18.141 36.3555 17.328V14.3622C36.3555 13.5493 35.6859 12.8793 34.8731 12.8793H31.4102C31.4102 11.2853 30.8954 9.75937 30.4084 8.28776C30.3744 8.18512 30.3076 8.09645 30.2183 8.03542C30.1291 7.97439 30.0223 7.94436 29.9143 7.94986C29.8863 7.95145 29.8586 7.95539 29.8313 7.96169C27.5908 8.46577 25.5276 9.24834 23.5039 11.0549L23.4615 11.0915C23.1696 10.9694 22.8504 10.9004 22.5156 10.9004C22.1796 10.9004 21.8588 10.9686 21.5661 11.0915L21.5235 11.0549C19.5013 9.25111 17.439 8.46923 15.2001 7.96555C15.1684 7.95774 15.1359 7.95307 15.1032 7.95167C15.0865 7.95081 15.0696 7.95081 15.0528 7.95167L15.0572 7.94986Z" fill="#1D1E1E"/>
<path d="M29.5764 9.07715C27.6819 9.54663 25.9932 10.2103 24.3029 11.6741C24.6176 12.0044 24.845 12.4165 24.9399 12.879H30.4218C30.4218 11.6547 29.999 10.3754 29.5764 9.07715ZM15.4585 9.07914C15.036 10.3766 14.615 11.6554 14.615 12.879H20.0988C20.1927 12.418 20.4207 12.0078 20.7339 11.6781C19.0428 10.2129 17.3538 9.54882 15.4585 9.07914ZM22.5194 11.8904C21.8689 11.8904 21.3276 12.3013 21.1257 12.879H23.913C23.7111 12.3013 23.1699 11.8904 22.5194 11.8904Z" fill="white"/>
<path d="M10.1669 13.8673H20.0498V15.0817C20.0493 15.0939 20.0493 15.1062 20.0498 15.1184V17.8214H10.1669C9.88462 17.8214 9.67273 17.6096 9.67273 17.3271V14.3614C9.67273 14.079 9.88462 13.8673 10.1669 13.8673Z" fill="#FF7300"/>
<path d="M24.0016 13.8677H21.0367V15.0821C21.0371 15.0936 21.0371 15.1052 21.0367 15.1167V17.8218H24.0016V15.1187V13.8677Z" fill="white"/>
<path d="M24.9889 13.8677H34.8718C35.154 13.8677 35.3659 14.0796 35.3659 14.362V17.3277C35.3659 17.6102 35.154 17.822 34.8718 17.822H24.9889V15.1169V13.8677Z" fill="#FF7300"/>
<path d="M11.1549 18.8108H20.0495V34.3946V35.6304H12.6373C11.8128 35.6304 11.1549 34.9723 11.1549 34.1475V18.8108Z" fill="#FF7300"/>
<path d="M21.0367 18.8108H24.0016V34.3965V35.6304H21.0367V34.4274C21.0371 34.4166 21.0371 34.4056 21.0367 34.3947V18.8108Z" fill="white"/>
<path d="M24.9889 18.8108H33.8835V34.1475C33.8835 34.9723 33.2256 35.6304 32.4011 35.6304H24.9889V34.4294C24.9893 34.4185 24.9893 34.4077 24.9889 34.3968V18.8108Z" fill="#FF7300"/>
<path d="M11.1549 18.8108V19.5831H20.0495V18.8108H11.1549ZM24.9909 18.8108V19.5831H33.8855V18.8108H24.9909Z" fill="#FF7300"/>
<path d="M14.6614 12.2866C14.6417 12.485 14.615 12.6837 14.615 12.8794H20.099C20.1414 12.6695 20.2157 12.4726 20.3093 12.2866H14.6614ZM21.5351 12.2866C21.3568 12.4498 21.2078 12.645 21.1258 12.8794H23.9131C23.8311 12.645 23.6821 12.4498 23.5039 12.2866H21.5351ZM24.7316 12.2866C24.8245 12.4724 24.897 12.6701 24.94 12.8794H30.4219C30.4215 12.6841 30.3952 12.4846 30.3755 12.2866H24.7316ZM21.0371 18.8109V19.5833H24.0019V18.8109H21.0371Z" fill="white"/>
<path d="M33.9965 5.01129L33.8358 5.65347L33.6751 5.01129C33.5831 4.6431 33.3928 4.30683 33.1245 4.03842C32.8562 3.77002 32.52 3.57957 32.1518 3.48743L31.509 3.32673L32.1518 3.16603C32.52 3.0739 32.8562 2.88345 33.1245 2.61504C33.3928 2.34664 33.5831 2.01037 33.6751 1.64218L33.8358 1L33.9965 1.64218C34.0885 2.01044 34.2789 2.34677 34.5474 2.61518C34.8158 2.88359 35.1521 3.074 35.5204 3.16603L36.1626 3.32673L35.5204 3.48743C35.1521 3.57947 34.8158 3.76987 34.5474 4.03829C34.2789 4.3067 34.0885 4.64302 33.9965 5.01129Z" fill="white"/>
<path d="M8.34392 8.00005L8.09945 8.73406L7.85498 8.00005C7.78645 7.79445 7.67098 7.60763 7.51773 7.45438C7.36448 7.30114 7.17766 7.18567 6.97205 7.11713L6.23804 6.87267L6.97205 6.62821C7.17766 6.55968 7.36448 6.44421 7.51773 6.29097C7.67098 6.13772 7.78645 5.9509 7.85498 5.74529L8.09945 5.01129L8.34392 5.74529C8.41245 5.9509 8.52792 6.13772 8.68117 6.29097C8.83442 6.44421 9.02124 6.55968 9.22685 6.62821L9.96086 6.87267L9.22685 7.11713C9.02124 7.18567 8.83442 7.30114 8.68117 7.45438C8.52792 7.60763 8.41245 7.79445 8.34392 8.00005Z" fill="white"/>
<path d="M37.5341 9.20055L37.2896 9.93456L37.0452 9.20055C36.9766 8.99495 36.8612 8.80813 36.7079 8.65488C36.5547 8.50164 36.3678 8.38617 36.1622 8.31764L35.4282 8.07318L36.1622 7.82871C36.3678 7.76018 36.5547 7.64471 36.7079 7.49147C36.8612 7.33822 36.9766 7.1514 37.0452 6.9458L37.2896 6.21179L37.5341 6.9458C37.6026 7.1514 37.7181 7.33822 37.8713 7.49147C38.0246 7.64471 38.2114 7.76018 38.417 7.82871L39.151 8.07318L38.417 8.31764C38.2114 8.38617 38.0246 8.50164 37.8713 8.65488C37.7181 8.80813 37.6026 8.99495 37.5341 9.20055Z" fill="white"/>
<path d="M33.9965 5.01129L33.8358 5.65347L33.6751 5.01129C33.5831 4.6431 33.3928 4.30683 33.1245 4.03842C32.8562 3.77002 32.52 3.57957 32.1518 3.48743L31.509 3.32673L32.1518 3.16603C32.52 3.0739 32.8562 2.88345 33.1245 2.61504C33.3928 2.34664 33.5831 2.01037 33.6751 1.64218L33.8358 1L33.9965 1.64218C34.0885 2.01044 34.2789 2.34677 34.5474 2.61518C34.8158 2.88359 35.1521 3.074 35.5204 3.16603L36.1626 3.32673L35.5204 3.48743C35.1521 3.57947 34.8158 3.76987 34.5474 4.03829C34.2789 4.3067 34.0885 4.64302 33.9965 5.01129Z" stroke="#1D1E1E" stroke-width="0.49637" stroke-linecap="round" stroke-linejoin="round"/>
<path d="M8.34392 8.00005L8.09945 8.73406L7.85498 8.00005C7.78645 7.79445 7.67098 7.60763 7.51773 7.45438C7.36448 7.30114 7.17766 7.18567 6.97205 7.11713L6.23804 6.87267L6.97205 6.62821C7.17766 6.55968 7.36448 6.44421 7.51773 6.29097C7.67098 6.13772 7.78645 5.9509 7.85498 5.74529L8.09945 5.01129L8.34392 5.74529C8.41245 5.9509 8.52792 6.13772 8.68117 6.29097C8.83442 6.44421 9.02124 6.55968 9.22685 6.62821L9.96086 6.87267L9.22685 7.11713C9.02124 7.18567 8.83442 7.30114 8.68117 7.45438C8.52792 7.60763 8.41245 7.79445 8.34392 8.00005Z" stroke="#1D1E1E" stroke-width="0.49637" stroke-linecap="round" stroke-linejoin="round"/>
<path d="M37.5341 9.20055L37.2896 9.93456L37.0452 9.20055C36.9766 8.99495 36.8612 8.80813 36.7079 8.65488C36.5547 8.50164 36.3678 8.38617 36.1622 8.31764L35.4282 8.07318L36.1622 7.82871C36.3678 7.76018 36.5547 7.64471 36.7079 7.49147C36.8612 7.33822 36.9766 7.1514 37.0452 6.9458L37.2896 6.21179L37.5341 6.9458C37.6026 7.1514 37.7181 7.33822 37.8713 7.49147C38.0246 7.64471 38.2114 7.76018 38.417 7.82871L39.151 8.07318L38.417 8.31764C38.2114 8.38617 38.0246 8.50164 37.8713 8.65488C37.7181 8.80813 37.6026 8.99495 37.5341 9.20055Z" stroke="#1D1E1E" stroke-width="0.49637" stroke-linecap="round" stroke-linejoin="round"/>
</svg>
